<?xml version="1.0" encoding="utf-8"?>
<!-- Generator: Adobe Illustrator 26.5.0, SVG Export Plug-In . SVG Version: 6.00 Build 0)  -->
<svg version="1.0" id="Layer_1" xmlns="http://www.w3.org/2000/svg" xmlns:xlink="http://www.w3.org/1999/xlink" x="0px" y="0px"
	 viewBox="0 0 51.8 40.9" style="enable-background:new 0 0 51.8 40.9;" xml:space="preserve">
<style type="text/css">
	.st0{fill-rule:evenodd;clip-rule:evenodd;fill:url(#SVGID_1_);}
	.st1{fill-rule:evenodd;clip-rule:evenodd;fill:url(#SVGID_00000109009433018438921870000007622658731832746898_);}
	.st2{fill-rule:evenodd;clip-rule:evenodd;fill:url(#SVGID_00000078016791963978275710000018322138332306719113_);}
	
		.st3{fill-rule:evenodd;clip-rule:evenodd;fill:url(#SVGID_00000005973923094501583710000017968609876284519825_);fill-opacity:0.48;}
	.st4{fill:url(#SVGID_00000010284274801240854820000006848113287085768842_);}
	.st5{fill:url(#SVGID_00000012467333023261248490000013823126670001036447_);}
	.st6{fill:url(#SVGID_00000161628745343810993960000004632051345930833312_);}
	.st7{fill:url(#SVGID_00000044149696495258634060000007063430522228844207_);}
	.st8{fill:url(#SVGID_00000012460294928789464750000001947070132209551534_);}
	.st9{fill:url(#SVGID_00000183940446346796000440000009655488620359980202_);}
	.st10{fill:url(#SVGID_00000106862088513829686190000010286841437660988351_);}
	.st11{fill:url(#SVGID_00000158718949889887541760000014956136881807098499_);}
</style>
<g>
	
		<linearGradient id="SVGID_1_" gradientUnits="userSpaceOnUse" x1="-996.6592" y1="-34.7142" x2="-996.6592" y2="-33.7142" gradientTransform="matrix(1.959435e-15 32 -28 1.714506e-15 -932.0977 31909.0957)">
		<stop  offset="0" style="stop-color:#00BFFB"/>
		<stop  offset="1" style="stop-color:#0270D7"/>
	</linearGradient>
	<path class="st0" d="M39.9,8l-14-8l-14,8v16l14,8l14-8V8z"/>
	
		<linearGradient id="SVGID_00000128448828623064011400000000268434346826453685_" gradientUnits="userSpaceOnUse" x1="-994.1685" y1="78.9375" x2="-994.1685" y2="79.9375" gradientTransform="matrix(14 0 0 32 13937.2578 -2526)">
		<stop  offset="0" style="stop-color:#1F232A;stop-opacity:0.48"/>
		<stop  offset="1" style="stop-color:#1F2329;stop-opacity:0"/>
	</linearGradient>
	<path style="fill-rule:evenodd;clip-rule:evenodd;fill:url(#SVGID_00000128448828623064011400000000268434346826453685_);" d="
		M25.9,0v32l-14-8V8L25.9,0z"/>
	
		<linearGradient id="SVGID_00000134965149192268472110000004675727618523038340_" gradientUnits="userSpaceOnUse" x1="-1032.3002" y1="104.6663" x2="-1033.2085" y2="104.017" gradientTransform="matrix(28 0 0 24 28946.6133 -2494)">
		<stop  offset="0" style="stop-color:#FFFFFF;stop-opacity:0"/>
		<stop  offset="1" style="stop-color:#FFFFFF;stop-opacity:0.64"/>
	</linearGradient>
	<path style="fill-rule:evenodd;clip-rule:evenodd;fill:url(#SVGID_00000134965149192268472110000004675727618523038340_);" d="
		M39.9,24l-28-16l14-8l14,8V24z"/>
	
		<linearGradient id="SVGID_00000070084285369723528840000004365571192473379499_" gradientUnits="userSpaceOnUse" x1="-1033.6821" y1="104.8895" x2="-1032.4423" y2="104.0405" gradientTransform="matrix(28 0 0 23.978 28946.6133 -2493.9126)">
		<stop  offset="0" style="stop-color:#0270D7"/>
		<stop  offset="1" style="stop-color:#0270D7;stop-opacity:0"/>
	</linearGradient>
	
		<path style="fill-rule:evenodd;clip-rule:evenodd;fill:url(#SVGID_00000070084285369723528840000004365571192473379499_);fill-opacity:0.48;" d="
		M39.9,8l-28,16V8l14-8L39.9,8z"/>
</g>
<g>
	<g>
		
			<linearGradient id="SVGID_00000169539930587219057670000004790977468195562924_" gradientUnits="userSpaceOnUse" x1="0.7" y1="37.2" x2="7.6" y2="37.2">
			<stop  offset="0" style="stop-color:#0270D7"/>
			<stop  offset="1" style="stop-color:#0270D7;stop-opacity:0"/>
		</linearGradient>
		<path style="fill:url(#SVGID_00000169539930587219057670000004790977468195562924_);" d="M3.6,34l-2.9,6.4H2l0.6-1.5h3.2l0.6,1.5
			h1.2L4.8,34H3.6z M3,37.9l1.2-2.8l1.2,2.8H3z"/>
		
			<linearGradient id="SVGID_00000136386538499505379650000010030294265360155281_" gradientUnits="userSpaceOnUse" x1="7.9" y1="37" x2="13.9" y2="37">
			<stop  offset="0" style="stop-color:#0270D7"/>
			<stop  offset="1" style="stop-color:#0270D7;stop-opacity:0"/>
		</linearGradient>
		<path style="fill:url(#SVGID_00000136386538499505379650000010030294265360155281_);" d="M9.8,35.5c0.2-0.2,0.4-0.4,0.7-0.5
			s0.6-0.2,0.9-0.2c0.3,0,0.6,0.1,0.9,0.2s0.5,0.3,0.8,0.6l0.8-0.7c-0.3-0.4-0.7-0.6-1.1-0.8c-0.4-0.2-0.9-0.3-1.4-0.3
			S10.5,33.9,10,34c-0.4,0.2-0.8,0.4-1.1,0.7s-0.5,0.6-0.7,1S7.9,36.5,7.9,37s0.1,0.9,0.3,1.3c0.2,0.4,0.4,0.7,0.7,1S9.6,39.8,10,40
			c0.4,0.2,0.9,0.2,1.4,0.2s1-0.1,1.4-0.3s0.8-0.4,1.1-0.8l-0.8-0.7c-0.2,0.3-0.5,0.4-0.8,0.6s-0.6,0.2-0.9,0.2
			c-0.3,0-0.6-0.1-0.9-0.2s-0.5,0-0.7-0.2s-0.4-0.4-0.5-0.7s-0.2-0.6-0.2-0.9s0.1-0.6,0.2-0.9C9.4,36,9.6,35.7,9.8,35.5z"/>
		
			<linearGradient id="SVGID_00000152968191012618860160000004572108680084622243_" gradientUnits="userSpaceOnUse" x1="15" y1="37.15" x2="22" y2="37.15">
			<stop  offset="0" style="stop-color:#0270D7"/>
			<stop  offset="1" style="stop-color:#0270D7;stop-opacity:0"/>
		</linearGradient>
		<polygon style="fill:url(#SVGID_00000152968191012618860160000004572108680084622243_);" points="21,34 18.5,38.2 16,34 15,34 
			15,40.3 16.1,40.3 16.1,36.2 18.2,39.6 18.7,39.6 20.8,36.1 20.8,40.3 22,40.3 21.9,34 		"/>
		
			<linearGradient id="SVGID_00000037665891563891111710000007862117645828657854_" gradientUnits="userSpaceOnUse" x1="23.7" y1="37.15" x2="28.4" y2="37.15">
			<stop  offset="0" style="stop-color:#0270D7"/>
			<stop  offset="1" style="stop-color:#0270D7;stop-opacity:0"/>
		</linearGradient>
		<polygon style="fill:url(#SVGID_00000037665891563891111710000007862117645828657854_);" points="24.9,37.6 27.9,37.6 27.9,36.6 
			24.9,36.6 24.9,35 28.3,35 28.3,34 23.7,34 23.7,40.3 28.4,40.3 28.4,39.3 24.9,39.3 		"/>
		
			<linearGradient id="SVGID_00000062871590570021951420000004703705192058081723_" gradientUnits="userSpaceOnUse" x1="29.8" y1="37.2" x2="35.2" y2="37.2">
			<stop  offset="0" style="stop-color:#0270D7"/>
			<stop  offset="1" style="stop-color:#0270D7;stop-opacity:0"/>
		</linearGradient>
		<path style="fill:url(#SVGID_00000062871590570021951420000004703705192058081723_);" d="M33.8,38.2c0.4-0.2,0.7-0.4,0.9-0.8
			c0.2-0.3,0.3-0.7,0.3-1.2s-0.1-0.9-0.3-1.2s-0.5-0.6-0.9-0.8S32.9,34,32.4,34h-2.6v6.4H31v-1.9h1.4c0.1,0,0.2,0,0.2,0l1.3,1.9h1.3
			l-1.5-2.1C33.8,38.2,33.8,38.2,33.8,38.2z M32.3,37.5h-1.4V35h1.4c0.5,0,0.9,0.1,1.2,0.3s0.4,0.5,0.4,0.9s-0.1,0.7-0.4,0.9
			S32.8,37.5,32.3,37.5z"/>
		
			<linearGradient id="SVGID_00000130618090419181470700000007303682187621208484_" gradientUnits="userSpaceOnUse" x1="36.4" y1="37.15" x2="41.2" y2="37.15">
			<stop  offset="0" style="stop-color:#0270D7"/>
			<stop  offset="1" style="stop-color:#0270D7;stop-opacity:0"/>
		</linearGradient>
		<polygon style="fill:url(#SVGID_00000130618090419181470700000007303682187621208484_);" points="37.6,37.6 40.7,37.6 40.7,36.6 
			37.6,36.6 37.6,35 41.1,35 41.1,34 36.4,34 36.4,40.3 41.2,40.3 41.2,39.3 37.6,39.3 		"/>
		
			<linearGradient id="SVGID_00000018221504599020994520000010902128950226144919_" gradientUnits="userSpaceOnUse" x1="42.5" y1="37.2" x2="43.7" y2="37.2">
			<stop  offset="0" style="stop-color:#0270D7"/>
			<stop  offset="1" style="stop-color:#0270D7;stop-opacity:0"/>
		</linearGradient>
		<rect x="42.5" y="34" style="fill:url(#SVGID_00000018221504599020994520000010902128950226144919_);" width="1.2" height="6.4"/>
		
			<linearGradient id="SVGID_00000073702160916710154640000018271048366112096701_" gradientUnits="userSpaceOnUse" x1="45.4" y1="37.15" x2="51" y2="37.15">
			<stop  offset="0" style="stop-color:#0270D7"/>
			<stop  offset="1" style="stop-color:#0270D7;stop-opacity:0"/>
		</linearGradient>
		<polygon style="fill:url(#SVGID_00000073702160916710154640000018271048366112096701_);" points="49.9,34 49.9,38.3 46.4,34 
			45.4,34 45.4,40.3 46.6,40.3 46.6,36 50.1,40.3 51,40.3 51,34 		"/>
	</g>
</g>
</svg>
